<mxfile host="app.diagrams.net" modified="2023-11-10T13:57:16.956Z" agent="Mozilla/5.0 (Windows NT 10.0; Win64; x64) AppleWebKit/537.36 (KHTML, like Gecko) Chrome/116.0.0.0 Safari/537.36 OPR/102.0.0.0" version="22.1.0" etag="Jisgn83nldRZTOSEGlQH" type="github">
  <diagram name="PÃ¡gina-1" id="Tc_5Y0jsu3RIHn3JcVW7">
    <mxGraphModel>
      <root>
        <mxCell id="0" />
        <mxCell id="1" parent="0" />
      </root>
    </mxGraphModel>
  </diagram>
</mxfile>
